<svg width="660" height="292" viewBox="0 0 660 292" fill="none" xmlns="http://www.w3.org/2000/svg">
<rect width="660" height="292" fill="white"/>
<path d="M223.788 196.192L222.402 199.746M230.897 198.963L229.512 202.518M215.011 218.706L213.626 222.261M222.121 221.477L220.735 225.032M233.127 210.752L236.682 212.138M230.817 216.677L234.372 218.063M210.613 201.976L214.168 203.362M208.303 207.901L211.858 209.286M208.219 63.3907L213.443 59.0639M213.443 59.0639L219.319 54.1962M213.443 59.0639L209.228 52.6464M213.443 59.0639L217.658 65.4814M219.319 54.1962L223.89 50.4103M219.319 54.1962L215.105 47.7788M219.319 54.1962L223.534 60.6137M213.087 69.2673L217.658 65.4814M217.658 65.4814L223.534 60.6137M217.658 65.4814L221.872 71.8988M223.534 60.6137L228.758 56.2869M223.534 60.6137L227.749 67.0312M83.6131 95.3935L87.7007 85.4072L77.7145 81.3196M68.3319 85.252L64.2442 95.2382L74.2305 99.3259M218.847 198.361L233.066 203.904C234.375 204.414 235.023 205.888 234.513 207.197L228.97 221.417C228.46 222.726 226.985 223.373 225.676 222.863L211.457 217.32C210.148 216.81 209.5 215.335 210.011 214.026L215.553 199.807C216.064 198.498 217.538 197.851 218.847 198.361ZM220.092 205.671L227.202 208.443L224.431 215.552L217.321 212.781L220.092 205.671ZM469.355 177.809L465.387 197.275L475.467 191.852L479.168 201.414L483.136 181.948L473.056 187.372L469.355 177.809ZM589.181 41.3562L588.952 50.2309L596.13 55.4591L587.62 57.9792L584.874 66.4207L579.843 59.1038L570.964 59.1021L576.366 52.058L573.622 43.6167L581.997 46.5716L589.181 41.3562ZM582.944 102.733C584.059 108.552 584.466 114.307 584.164 120C583.851 125.628 582.869 131.053 581.218 136.275C579.631 141.484 577.395 146.42 574.51 151.083C571.677 155.67 568.26 159.805 564.259 163.488C560.322 167.159 555.854 170.302 550.853 172.918C545.84 175.47 540.36 177.315 534.414 178.455C528.659 179.557 523.019 179.876 517.494 179.41C512.033 178.932 506.782 177.817 501.739 176.065C496.685 174.25 491.948 171.843 487.529 168.845C483.161 165.771 479.232 162.215 475.74 158.178C472.3 154.064 469.343 149.527 466.867 144.566C464.456 139.592 462.705 134.26 461.615 128.569C460.548 123.006 460.178 117.443 460.504 111.878C460.818 106.25 461.768 100.831 463.355 95.6217C465.006 90.3999 467.242 85.4638 470.063 80.8133C472.884 76.1628 476.224 71.9762 480.085 68.2534C484.009 64.5183 488.408 61.3553 493.281 58.7643C498.154 56.1732 503.467 54.3263 509.222 53.2236C518.494 51.4469 527.209 51.2681 535.37 52.6873C543.594 54.0943 550.906 56.9686 557.307 61.3104C563.759 65.5759 569.184 71.2314 573.584 78.2767C578.035 85.2458 581.155 93.398 582.944 102.733ZM540.837 113.388C540.31 110.638 539.386 108.064 538.065 105.666C536.795 103.191 535.203 101.11 533.289 99.422C531.362 97.67 529.131 96.4071 526.596 95.6333C524.114 94.7834 521.401 94.6402 518.46 95.2039C515.455 95.7798 512.874 96.8379 510.716 98.3782C508.559 99.9186 506.8 101.813 505.442 104.062C504.134 106.235 503.278 108.686 502.873 111.415C502.456 114.081 502.517 116.82 503.056 119.633C503.571 122.319 504.469 124.931 505.751 127.469C507.033 130.008 508.649 132.217 510.601 134.097C512.552 135.977 514.775 137.374 517.27 138.288C519.829 139.189 522.612 139.352 525.617 138.776C528.622 138.2 531.197 137.11 533.342 135.506C535.539 133.825 537.279 131.835 538.562 129.534C539.832 127.169 540.664 124.59 541.057 121.797C541.449 119.004 541.376 116.201 540.837 113.388ZM459.593 150.834C460.344 155.856 460.577 160.495 460.292 164.751C460.062 168.933 459.269 172.869 457.912 176.561C456.555 180.253 454.613 183.769 452.084 187.11C449.556 190.45 446.397 193.754 442.606 197.02L471.719 234.532L429.529 249.533L408.5 210.614L396.582 212.792L400.854 253.23L359.324 259.443C357.45 244.714 355.553 230.055 353.633 215.465C351.779 200.865 349.946 186.196 348.136 171.458C347.157 164.034 346.188 156.674 345.228 149.379C344.269 142.084 343.428 134.705 342.707 127.243C346.963 124.895 351.199 122.846 355.414 121.096C359.628 119.347 363.881 117.855 368.173 116.62C372.52 115.312 376.932 114.224 381.41 113.356C385.943 112.415 390.592 111.588 395.357 110.875C402.697 109.777 409.934 109.747 417.067 110.787C424.255 111.752 430.792 113.868 436.679 117.135C442.566 120.401 447.539 124.825 451.6 130.405C455.724 135.976 458.389 142.786 459.593 150.834ZM416.787 160.398C416.382 157.693 415.625 155.272 414.515 153.134C413.47 150.987 412.086 149.219 410.365 147.831C408.698 146.368 406.702 145.35 404.378 144.777C402.109 144.129 399.525 144.021 396.628 144.455C395.34 144.647 394.099 144.932 392.905 145.308C391.701 145.62 390.543 146.023 389.432 146.519L393.262 182.678L395.58 182.331C398.348 181.917 401.096 181.144 403.823 180.012C406.615 178.87 409.027 177.39 411.059 175.572C413.155 173.745 414.738 171.566 415.808 169.036C416.942 166.497 417.268 163.617 416.787 160.398ZM331.347 127.743C330.071 133.261 328.414 138.692 326.376 144.034C315.369 142.224 304.321 140.872 293.235 139.978C282.163 139.022 271.092 138.065 260.02 137.108C260.613 142.057 262.338 146.298 265.196 149.832C268.118 153.381 272.02 155.721 276.904 156.85C279.442 157.437 282.311 157.599 285.512 157.337C288.777 157.09 292.061 156.613 295.365 155.907C298.684 155.138 301.897 154.244 305.006 153.225C308.115 152.207 310.807 151.259 313.081 150.382L298.525 192.521C295.611 193.852 292.541 194.846 289.315 195.503C286.153 196.175 282.922 196.564 279.624 196.67C276.325 196.776 273.046 196.652 269.786 196.3C266.527 195.947 263.374 195.418 260.33 194.714C254.05 193.262 248.508 191.078 243.703 188.163C238.897 185.247 234.722 181.776 231.176 177.748C227.709 173.672 224.873 169.174 222.67 164.254C220.466 159.335 218.89 154.159 217.941 148.727C216.992 143.296 216.616 137.696 216.814 131.928C217.012 126.16 217.764 120.454 219.069 114.809C220.434 108.91 222.337 103.135 224.779 97.4856C227.222 91.8359 230.152 86.533 233.57 81.5767C237.052 76.6351 240.977 72.2305 245.346 68.3629C249.794 64.4465 254.641 61.2574 259.888 58.7955C265.134 56.3336 270.776 54.765 276.813 54.0895C282.913 53.4286 289.356 53.883 296.143 55.4525C301.789 56.758 306.743 58.7391 311.007 61.3956C315.349 64.0034 319.005 67.1209 321.975 70.7479C325.023 74.3262 327.439 78.3263 329.223 82.7481C331.07 87.1847 332.322 91.8845 332.979 96.8475C333.713 101.762 333.906 106.851 333.557 112.117C333.286 117.333 332.55 122.542 331.347 127.743ZM294.433 113.994C294.844 112.218 295.071 110.366 295.116 108.439C295.176 106.448 294.937 104.589 294.401 102.861C293.929 101.148 293.105 99.6545 291.929 98.3803C290.769 97.0427 289.142 96.1319 287.048 95.6478C284.511 95.0611 282.098 95.2381 279.809 96.1788C277.598 97.0708 275.553 98.402 273.673 100.173C271.808 101.88 270.153 103.836 268.708 106.041C267.262 108.246 266.083 110.312 265.17 112.239L293.949 116.087L294.433 113.994ZM207.293 77.3386L197.631 213.781L150.626 225.787L82.9548 109.09L127.551 95.9644L160.236 165.187L162.647 83.1098L207.293 77.3386ZM356.693 94.3618C356.46 94.5995 356.33 94.9191 356.33 95.2519C356.33 95.5848 356.46 95.9044 356.693 96.1421L358.728 98.1768C358.966 98.4098 359.285 98.5403 359.618 98.5403C359.951 98.5403 360.271 98.4098 360.508 98.1768L365.303 93.3826C365.942 94.7956 366.136 96.37 365.858 97.8959C365.58 99.4218 364.843 100.827 363.747 101.923C362.65 103.02 361.245 103.757 359.719 104.035C358.193 104.313 356.619 104.119 355.206 103.48L346.418 112.267C345.913 112.773 345.226 113.057 344.511 113.057C343.795 113.057 343.109 112.773 342.603 112.267C342.098 111.761 341.813 111.075 341.813 110.359C341.813 109.644 342.098 108.958 342.603 108.452L351.391 99.6646C350.751 98.2516 350.558 96.6772 350.836 95.1513C351.114 93.6254 351.85 92.2205 352.947 91.1237C354.044 90.027 355.448 89.2906 356.974 89.0126C358.5 88.7345 360.075 88.9281 361.488 89.5676L356.693 94.3618Z" stroke="black" stroke-width="50" stroke-linecap="round" stroke-linejoin="round"/>
<g clip-path="url(#clip0_1_2)">
<path d="M223.788 196.192L222.402 199.746M230.897 198.963L229.512 202.518M215.011 218.706L213.626 222.261M222.121 221.477L220.735 225.032M233.127 210.752L236.682 212.138M230.817 216.677L234.372 218.063M210.613 201.976L214.168 203.362M208.303 207.901L211.858 209.287M218.847 198.361L233.066 203.904C234.375 204.414 235.023 205.888 234.513 207.197L228.97 221.417C228.46 222.726 226.985 223.373 225.676 222.863L211.457 217.32C210.148 216.81 209.5 215.335 210.011 214.026L215.553 199.807C216.064 198.498 217.538 197.851 218.847 198.361ZM220.092 205.671L227.202 208.443L224.431 215.552L217.321 212.781L220.092 205.671Z" stroke="white" stroke-width="2.54359" stroke-linecap="round" stroke-linejoin="round"/>
</g>
<g clip-path="url(#clip1_1_2)">
<path d="M469.355 177.809L465.387 197.275L475.467 191.852L479.168 201.414L483.136 181.948L473.056 187.372L469.355 177.809Z" stroke="white" stroke-width="2.54359" stroke-linecap="round" stroke-linejoin="round"/>
</g>
<g clip-path="url(#clip2_1_2)">
<path d="M208.219 63.3907L223.89 50.4103M213.087 69.2673L228.758 56.2869M209.228 52.6464L221.872 71.8988M215.105 47.7788L227.749 67.0312" stroke="white" stroke-width="2.54359" stroke-linecap="round" stroke-linejoin="round"/>
</g>
<g clip-path="url(#clip3_1_2)">
<path d="M589.181 41.3562L588.952 50.2309L596.13 55.4591L587.62 57.9792L584.874 66.4207L579.843 59.1038L570.964 59.1021L576.366 52.058L573.622 43.6167L581.997 46.5716L589.181 41.3562Z" stroke="white" stroke-width="2.54333" stroke-linecap="round" stroke-linejoin="round"/>
</g>
<mask id="mask0_1_2" style="mask-type:alpha" maskUnits="userSpaceOnUse" x="82" y="52" width="502" height="209">
<path d="M581.989 103.342C583.104 109.16 583.511 114.916 583.21 120.608C582.896 126.236 581.914 131.661 580.263 136.883C578.676 142.093 576.44 147.029 573.555 151.691C570.722 156.278 567.305 160.413 563.304 164.096C559.368 167.767 554.899 170.911 549.898 173.526C544.885 176.078 539.405 177.923 533.459 179.063C527.704 180.166 522.064 180.484 516.539 180.018C511.078 179.54 505.827 178.425 500.785 176.674C495.73 174.858 490.993 172.451 486.574 169.454C482.207 166.38 478.277 162.824 474.786 158.786C471.346 154.673 468.388 150.135 465.913 145.174C463.501 140.2 461.75 134.868 460.66 129.178C459.594 123.615 459.224 118.051 459.549 112.487C459.863 106.858 460.813 101.439 462.4 96.23C464.051 91.0082 466.287 86.0721 469.108 81.4216C471.929 76.7711 475.27 72.5845 479.13 68.8617C483.054 65.1266 487.453 61.9636 492.326 59.3726C497.199 56.7815 502.513 54.9346 508.267 53.8319C517.539 52.0551 526.255 51.8764 534.415 53.2956C542.639 54.7026 549.951 57.5769 556.352 61.9187C562.804 66.1842 568.229 71.8397 572.629 78.885C577.08 85.8541 580.2 94.0063 581.989 103.342ZM539.882 113.996C539.355 111.246 538.431 108.673 537.11 106.274C535.84 103.8 534.248 101.718 532.334 100.03C530.407 98.2783 528.176 97.0154 525.642 96.2416C523.159 95.3917 520.447 95.2485 517.505 95.8122C514.5 96.3881 511.919 97.4462 509.761 98.9865C507.604 100.527 505.846 102.422 504.487 104.671C503.18 106.844 502.324 109.295 501.919 112.024C501.501 114.689 501.562 117.428 502.101 120.242C502.616 122.927 503.514 125.539 504.796 128.078C506.078 130.616 507.695 132.825 509.646 134.705C511.597 136.585 513.82 137.982 516.315 138.896C518.875 139.798 521.657 139.96 524.662 139.385C527.667 138.809 530.242 137.719 532.388 136.114C534.585 134.434 536.324 132.443 537.607 130.142C538.877 127.778 539.709 125.199 540.102 122.406C540.495 119.613 540.421 116.809 539.882 113.996Z" fill="white"/>
<path d="M458.638 151.442C459.389 156.465 459.623 161.104 459.338 165.359C459.107 169.541 458.314 173.478 456.957 177.17C455.601 180.861 453.658 184.378 451.13 187.718C448.601 191.059 445.442 194.362 441.652 197.628L470.764 235.14L428.574 250.141L407.545 211.222L395.627 213.4L399.899 253.838L358.369 260.051C356.495 245.322 354.598 230.663 352.679 216.073C350.824 201.473 348.991 186.804 347.182 172.066C346.203 164.642 345.233 157.283 344.274 149.988C343.314 142.692 342.473 135.314 341.752 127.851C346.009 125.503 350.244 123.454 354.459 121.704C358.674 119.955 362.927 118.463 367.218 117.228C371.565 115.92 375.977 114.832 380.455 113.964C384.988 113.023 389.637 112.196 394.402 111.483C401.742 110.385 408.979 110.356 416.112 111.395C423.3 112.36 429.838 114.476 435.724 117.743C441.611 121.01 446.584 125.433 450.645 131.014C454.77 136.584 457.434 143.394 458.638 151.442ZM415.832 161.006C415.427 158.302 414.67 155.881 413.56 153.743C412.515 151.595 411.131 149.827 409.41 148.439C407.743 146.977 405.747 145.959 403.423 145.385C401.154 144.737 398.571 144.63 395.673 145.063C394.385 145.256 393.144 145.54 391.95 145.916C390.746 146.228 389.588 146.632 388.477 147.127L392.307 183.286L394.625 182.94C397.394 182.525 400.141 181.752 402.869 180.62C405.66 179.479 408.072 177.999 410.104 176.181C412.2 174.353 413.783 172.174 414.853 169.644C415.987 167.105 416.314 164.225 415.832 161.006Z" fill="white"/>
<path d="M330.392 128.351C329.116 133.87 327.459 139.3 325.422 144.643C314.414 142.832 303.367 141.48 292.28 140.587C281.208 139.63 270.137 138.673 259.065 137.717C259.658 142.665 261.384 146.906 264.241 150.441C267.163 153.99 271.065 156.329 275.95 157.458C278.487 158.045 281.356 158.207 284.557 157.945C287.822 157.698 291.106 157.221 294.41 156.515C297.729 155.746 300.943 154.852 304.051 153.833C307.16 152.815 309.852 151.867 312.126 150.99L297.57 193.13C294.656 194.46 291.586 195.455 288.361 196.112C285.198 196.784 281.968 197.173 278.669 197.278C275.37 197.384 272.091 197.261 268.831 196.908C265.572 196.555 262.42 196.027 259.375 195.323C253.095 193.87 247.553 191.686 242.748 188.771C237.943 185.856 233.767 182.384 230.221 178.357C226.754 174.281 223.918 169.783 221.715 164.863C219.512 159.943 217.935 154.767 216.986 149.336C216.037 143.904 215.662 138.304 215.86 132.536C216.057 126.769 216.809 121.062 218.115 115.417C219.479 109.518 221.382 103.743 223.825 98.0939C226.267 92.4442 229.197 87.1413 232.615 82.185C236.097 77.2434 240.022 72.8388 244.392 68.9712C248.839 65.0548 253.686 61.8656 258.933 59.4038C264.18 56.9419 269.821 55.3733 275.858 54.6978C281.958 54.0369 288.402 54.4913 295.189 56.0608C300.834 57.3663 305.788 59.3474 310.052 62.0039C314.394 64.6117 318.05 67.7292 321.02 71.3562C324.068 74.9345 326.484 78.9346 328.268 83.3564C330.115 87.793 331.367 92.4928 332.024 97.4558C332.758 102.37 332.951 107.46 332.602 112.725C332.332 117.941 331.595 123.15 330.392 128.351ZM293.478 114.603C293.889 112.827 294.116 110.975 294.161 109.047C294.221 107.056 293.983 105.197 293.447 103.469C292.974 101.756 292.15 100.263 290.975 98.9886C289.814 97.651 288.187 96.7402 286.094 96.2561C283.556 95.6694 281.143 95.8464 278.854 96.7871C276.643 97.6791 274.598 99.0103 272.719 100.781C270.854 102.488 269.199 104.444 267.753 106.649C266.308 108.854 265.128 110.92 264.215 112.847L292.994 116.696L293.478 114.603Z" fill="white"/>
<path d="M206.339 77.9469L196.677 214.389L149.671 226.395L82 109.698L126.597 96.5727L159.281 165.795L161.693 83.7181L206.339 77.9469Z" fill="white"/>
</mask>
<g mask="url(#mask0_1_2)">
<path d="M582.944 102.733C584.059 108.552 584.466 114.307 584.164 120C583.851 125.628 582.869 131.053 581.218 136.275C579.631 141.484 577.395 146.42 574.51 151.083C571.677 155.67 568.26 159.805 564.259 163.488C560.322 167.159 555.854 170.302 550.853 172.918C545.84 175.47 540.36 177.315 534.414 178.455C528.659 179.557 523.019 179.876 517.494 179.41C512.033 178.932 506.782 177.817 501.739 176.065C496.685 174.25 491.948 171.843 487.529 168.845C483.161 165.771 479.232 162.215 475.74 158.178C472.3 154.064 469.343 149.527 466.867 144.566C464.456 139.592 462.705 134.26 461.615 128.569C460.548 123.006 460.178 117.443 460.504 111.878C460.818 106.25 461.768 100.831 463.355 95.6217C465.006 90.3999 467.242 85.4638 470.063 80.8133C472.884 76.1628 476.224 71.9762 480.085 68.2534C484.009 64.5183 488.408 61.3553 493.281 58.7643C498.154 56.1732 503.467 54.3263 509.222 53.2236C518.494 51.4469 527.209 51.2681 535.37 52.6873C543.594 54.0943 550.906 56.9686 557.307 61.3104C563.759 65.5759 569.184 71.2314 573.584 78.2767C578.035 85.2458 581.155 93.398 582.944 102.733ZM540.837 113.388C540.31 110.638 539.386 108.064 538.065 105.666C536.795 103.191 535.203 101.11 533.289 99.422C531.362 97.67 529.131 96.4071 526.596 95.6333C524.114 94.7834 521.401 94.6402 518.46 95.2039C515.455 95.7798 512.874 96.8379 510.716 98.3782C508.559 99.9186 506.8 101.813 505.442 104.062C504.134 106.235 503.278 108.686 502.873 111.415C502.456 114.081 502.517 116.82 503.056 119.633C503.571 122.319 504.469 124.931 505.751 127.469C507.033 130.008 508.649 132.217 510.601 134.097C512.552 135.977 514.775 137.374 517.27 138.288C519.829 139.189 522.612 139.352 525.617 138.776C528.622 138.2 531.197 137.11 533.342 135.506C535.539 133.825 537.279 131.835 538.562 129.534C539.832 127.169 540.664 124.59 541.057 121.797C541.449 119.004 541.376 116.201 540.837 113.388Z" fill="white"/>
<path d="M459.593 150.834C460.344 155.856 460.577 160.495 460.292 164.751C460.062 168.933 459.269 172.869 457.912 176.561C456.555 180.253 454.613 183.769 452.084 187.11C449.556 190.45 446.397 193.754 442.606 197.02L471.719 234.532L429.529 249.533L408.5 210.614L396.582 212.792L400.854 253.23L359.324 259.443C357.45 244.714 355.553 230.055 353.633 215.465C351.779 200.865 349.946 186.196 348.136 171.458C347.157 164.034 346.188 156.674 345.228 149.379C344.269 142.084 343.428 134.705 342.707 127.243C346.963 124.895 351.199 122.846 355.414 121.096C359.628 119.347 363.881 117.855 368.173 116.62C372.52 115.312 376.932 114.224 381.41 113.356C385.943 112.415 390.592 111.588 395.357 110.875C402.697 109.777 409.934 109.747 417.067 110.787C424.255 111.752 430.792 113.868 436.679 117.135C442.566 120.401 447.539 124.825 451.6 130.405C455.724 135.976 458.389 142.786 459.593 150.834ZM416.787 160.398C416.382 157.693 415.625 155.272 414.515 153.134C413.47 150.987 412.086 149.219 410.365 147.831C408.698 146.368 406.702 145.35 404.378 144.777C402.109 144.129 399.525 144.021 396.628 144.455C395.34 144.647 394.099 144.932 392.905 145.308C391.701 145.62 390.543 146.023 389.432 146.519L393.262 182.678L395.58 182.331C398.348 181.917 401.096 181.144 403.823 180.012C406.615 178.87 409.027 177.39 411.059 175.572C413.155 173.745 414.738 171.566 415.808 169.036C416.942 166.497 417.268 163.617 416.787 160.398Z" fill="white"/>
<path d="M331.347 127.743C330.071 133.261 328.414 138.692 326.376 144.034C315.369 142.224 304.321 140.872 293.235 139.978C282.163 139.022 271.092 138.065 260.02 137.108C260.613 142.057 262.338 146.298 265.196 149.832C268.118 153.381 272.02 155.721 276.904 156.85C279.442 157.437 282.311 157.599 285.512 157.337C288.777 157.09 292.061 156.613 295.365 155.907C298.684 155.138 301.897 154.244 305.006 153.225C308.115 152.207 310.807 151.259 313.081 150.382L298.525 192.521C295.611 193.852 292.541 194.846 289.315 195.503C286.153 196.175 282.922 196.564 279.624 196.67C276.325 196.776 273.046 196.652 269.786 196.3C266.527 195.947 263.374 195.418 260.33 194.714C254.05 193.262 248.508 191.078 243.703 188.163C238.897 185.247 234.722 181.776 231.176 177.748C227.709 173.672 224.873 169.174 222.67 164.254C220.466 159.335 218.89 154.159 217.941 148.727C216.992 143.296 216.616 137.696 216.814 131.928C217.012 126.16 217.764 120.454 219.069 114.809C220.434 108.91 222.337 103.135 224.779 97.4856C227.222 91.8359 230.152 86.533 233.57 81.5767C237.052 76.6351 240.977 72.2305 245.346 68.3629C249.794 64.4465 254.641 61.2574 259.888 58.7955C265.134 56.3336 270.776 54.765 276.813 54.0895C282.913 53.4286 289.356 53.883 296.143 55.4525C301.789 56.758 306.743 58.7391 311.007 61.3956C315.349 64.0034 319.005 67.1209 321.975 70.7479C325.023 74.3262 327.439 78.3263 329.223 82.7482C331.07 87.1847 332.322 91.8845 332.979 96.8475C333.713 101.762 333.906 106.851 333.557 112.117C333.286 117.333 332.55 122.542 331.347 127.743ZM294.433 113.994C294.844 112.218 295.071 110.366 295.116 108.439C295.176 106.448 294.937 104.589 294.401 102.861C293.929 101.148 293.105 99.6545 291.929 98.3803C290.769 97.0427 289.142 96.1319 287.048 95.6478C284.511 95.0611 282.098 95.2381 279.809 96.1788C277.598 97.0708 275.553 98.402 273.673 100.173C271.808 101.88 270.153 103.836 268.708 106.041C267.262 108.246 266.083 110.312 265.17 112.239L293.949 116.087L294.433 113.994Z" fill="white"/>
<path d="M207.293 77.3386L197.631 213.781L150.626 225.787L82.9548 109.09L127.551 95.9644L160.236 165.187L162.647 83.1098L207.293 77.3386Z" fill="white"/>
<path opacity="0.25" d="M186.536 149.117C167.318 153.941 135.523 166.735 109.629 191.872C102.375 198.915 99 208.884 99 218.995C99 242.94 118.411 262.35 142.355 262.35H542C569.614 262.35 592 239.965 592 212.35V175.073C592 136.556 550.282 112.503 516.948 131.801L478 154.35L449 169.35L409.095 184.869C389.769 192.385 367.808 187.191 353.896 171.814L330.324 145.761C323.597 138.326 314.79 133.085 305.047 130.719L268.778 121.911C256.695 118.976 243.952 120.649 233.036 126.604L202.597 143.207C197.57 145.949 192.09 147.722 186.536 149.117Z" fill="#FF4B4E"/>
<path opacity="0.25" d="M186.536 161.117C167.318 165.941 135.523 178.735 109.629 203.872C102.375 210.915 99 220.884 99 230.995C99 254.94 118.411 274.35 142.355 274.35H542C569.614 274.35 592 251.965 592 224.35V187.073C592 148.556 550.282 124.503 516.948 143.801L478 166.35L449 181.35L409.095 196.869C389.769 204.385 367.808 199.191 353.896 183.814L330.324 157.761C323.597 150.326 314.79 145.085 305.047 142.719L268.778 133.911C256.695 130.976 243.952 132.649 233.036 138.604L202.597 155.207C197.57 157.949 192.09 159.722 186.536 161.117Z" fill="#FF4B4E"/>
<path opacity="0.25" d="M186.536 173.117C167.318 177.941 135.523 190.735 109.629 215.872C102.375 222.915 99 232.884 99 242.995C99 266.94 118.411 286.35 142.355 286.35H542C569.614 286.35 592 263.965 592 236.35V199.073C592 160.556 550.282 136.503 516.948 155.801L478 178.35L449 193.35L409.095 208.869C389.769 216.385 367.808 211.191 353.896 195.814L330.324 169.761C323.597 162.326 314.79 157.085 305.047 154.719L268.778 145.911C256.695 142.976 243.952 144.649 233.036 150.604L202.597 167.207C197.57 169.949 192.09 171.722 186.536 173.117Z" fill="#FF4B4E"/>
<path opacity="0.25" d="M186.536 185.117C167.318 189.941 135.523 202.735 109.629 227.872C102.375 234.915 99 244.884 99 254.995C99 278.94 118.411 298.35 142.355 298.35H542C569.614 298.35 592 275.965 592 248.35V211.073C592 172.556 550.282 148.503 516.948 167.801L478 190.35L449 205.35L409.095 220.869C389.769 228.385 367.808 223.191 353.896 207.814L330.324 181.761C323.597 174.326 314.79 169.085 305.047 166.719L268.778 157.911C256.695 154.976 243.952 156.649 233.036 162.604L202.597 179.207C197.57 181.949 192.09 183.722 186.536 185.117Z" fill="#FF4B4E"/>
<path opacity="0.25" d="M186.536 197.117C167.318 201.941 135.523 214.735 109.629 239.872C102.375 246.915 99 256.884 99 266.995C99 290.94 118.411 310.35 142.355 310.35H542C569.614 310.35 592 287.965 592 260.35V223.073C592 184.556 550.282 160.503 516.948 179.801L478 202.35L449 217.35L409.095 232.869C389.769 240.385 367.808 235.191 353.896 219.814L330.324 193.761C323.597 186.326 314.79 181.085 305.047 178.719L268.778 169.911C256.695 166.976 243.952 168.649 233.036 174.604L202.597 191.207C197.57 193.949 192.09 195.722 186.536 197.117Z" fill="#FF4B4E"/>
<path opacity="0.25" d="M186.536 209.117C167.318 213.941 135.523 226.735 109.629 251.872C102.375 258.915 99 268.884 99 278.995C99 302.94 118.411 322.35 142.355 322.35H542C569.614 322.35 592 299.965 592 272.35V235.073C592 196.556 550.282 172.503 516.948 191.801L478 214.35L449 229.35L409.095 244.869C389.769 252.385 367.808 247.191 353.896 231.814L330.324 205.761C323.597 198.326 314.79 193.085 305.047 190.719L268.778 181.911C256.695 178.976 243.952 180.649 233.036 186.604L202.597 203.207C197.57 205.949 192.09 207.722 186.536 209.117Z" fill="#FF4B4E"/>
<path opacity="0.25" d="M186.536 221.117C167.318 225.941 135.523 238.735 109.629 263.872C102.375 270.915 99 280.884 99 290.995C99 314.94 118.411 334.35 142.355 334.35H542C569.614 334.35 592 311.965 592 284.35V247.073C592 208.556 550.282 184.503 516.948 203.801L478 226.35L449 241.35L409.095 256.869C389.769 264.385 367.808 259.191 353.896 243.814L330.324 217.761C323.597 210.326 314.79 205.085 305.047 202.719L268.778 193.911C256.695 190.976 243.952 192.649 233.036 198.604L202.597 215.207C197.57 217.949 192.09 219.722 186.536 221.117Z" fill="#FF4B4E"/>
</g>
<g clip-path="url(#clip4_1_2)">
<path d="M356.694 94.3618C356.46 94.5995 356.33 94.9191 356.33 95.2519C356.33 95.5848 356.46 95.9044 356.694 96.1421L358.728 98.1768C358.966 98.4098 359.285 98.5403 359.618 98.5403C359.951 98.5403 360.271 98.4098 360.509 98.1768L365.303 93.3826C365.942 94.7956 366.136 96.37 365.858 97.8959C365.58 99.4218 364.843 100.827 363.747 101.923C362.65 103.02 361.245 103.757 359.719 104.035C358.193 104.313 356.619 104.119 355.206 103.48L346.418 112.267C345.913 112.773 345.226 113.057 344.511 113.057C343.795 113.057 343.109 112.773 342.603 112.267C342.098 111.761 341.813 111.075 341.813 110.359C341.813 109.644 342.098 108.958 342.603 108.452L351.391 99.6646C350.751 98.2516 350.558 96.6772 350.836 95.1513C351.114 93.6254 351.85 92.2205 352.947 91.1237C354.044 90.027 355.448 89.2906 356.974 89.0126C358.5 88.7345 360.075 88.9281 361.488 89.5676L356.694 94.3618Z" stroke="white" stroke-width="4" stroke-linecap="round" stroke-linejoin="round"/>
</g>
<g clip-path="url(#clip5_1_2)">
<path d="M83.6131 95.3935L87.7007 85.4072L77.7145 81.3196M68.3319 85.252L64.2442 95.2382L74.2305 99.3259" stroke="white" stroke-width="4" stroke-linecap="round" stroke-linejoin="round"/>
</g>
<defs>
<clipPath id="clip0_1_2">
<rect width="30.5231" height="30.5231" fill="white" transform="translate(213.585 190.85) rotate(21.2962)"/>
</clipPath>
<clipPath id="clip1_1_2">
<rect width="30.5231" height="30.5231" fill="white" transform="translate(453.591 183.403) rotate(-28.2825)"/>
</clipPath>
<clipPath id="clip2_1_2">
<rect width="30.5231" height="30.5231" fill="white" transform="translate(197 57.8209) rotate(-39.6353)"/>
</clipPath>
<clipPath id="clip3_1_2">
<rect width="30.52" height="30.52" fill="white" transform="translate(576.861 32) rotate(27.7507)"/>
</clipPath>
<clipPath id="clip4_1_2">
<rect width="30.52" height="30.52" fill="white" transform="translate(338 86.3503)"/>
</clipPath>
<clipPath id="clip5_1_2">
<rect width="30.52" height="30.52" fill="white" transform="translate(56 82.1474) rotate(-22.7393)"/>
</clipPath>
</defs>
</svg>
